<?xml version="1.0" encoding="UTF-8"?> <svg xmlns="http://www.w3.org/2000/svg" width="2000" height="1118" viewBox="0 0 2000 1118" fill="none"><g clip-path="url(#clip0_112_9574)"><rect width="2000" height="1118" fill="#0D0316"></rect><rect width="2000" height="1120" transform="translate(0 -2)" fill="url(#paint0_radial_112_9574)"></rect><g clip-path="url(#clip1_112_9574)"><g clip-path="url(#clip2_112_9574)"><path d="M292.143 -156.115H291.429V1272.46H292.143V-156.115Z" fill="#D387FF" fill-opacity="0.05"></path><path d="M321.428 -156.115H320.714V1272.46H321.428V-156.115Z" fill="#D387FF" fill-opacity="0.05"></path><path d="M350.714 -156.115H350V1272.46H350.714V-156.115Z" fill="#D387FF" fill-opacity="0.05"></path><path d="M380 -156.115H379.286V1272.46H380V-156.115Z" fill="#D387FF" fill-opacity="0.05"></path><path d="M409.286 -156.115H408.571V1272.46H409.286V-156.115Z" fill="#D387FF" fill-opacity="0.05"></path><path d="M438.572 -156.115H437.857V1272.46H438.572V-156.115Z" fill="#D387FF" fill-opacity="0.05"></path><path d="M1708.93 2.09905V1.38477L280.357 1.38477V2.09905L1708.93 2.09905Z" fill="#D387FF" fill-opacity="0.05"></path><path d="M467.857 -156.115H467.143V1272.46H467.857V-156.115Z" fill="#D387FF" fill-opacity="0.05"></path><path d="M1708.93 31.3842V30.6699L280.357 30.6699V31.3842L1708.93 31.3842Z" fill="#D387FF" fill-opacity="0.05"></path><path d="M497.143 -156.115H496.429V1272.46H497.143V-156.115Z" fill="#D387FF" fill-opacity="0.05"></path><path d="M1708.93 60.6713V59.957L280.357 59.957V60.6713L1708.93 60.6713Z" fill="#D387FF" fill-opacity="0.05"></path><path d="M526.428 -156.115H525.714V1272.46H526.428V-156.115Z" fill="#D387FF" fill-opacity="0.05"></path><path d="M1708.93 89.9565V89.2422L280.357 89.2422V89.9565L1708.93 89.9565Z" fill="#D387FF" fill-opacity="0.05"></path><path d="M555.714 -156.115H555V1272.46H555.714V-156.115Z" fill="#D387FF" fill-opacity="0.05"></path><path d="M1708.93 119.242V118.527L280.357 118.527V119.242L1708.93 119.242Z" fill="#D387FF" fill-opacity="0.05"></path><path d="M585 -156.115H584.286V1272.46H585V-156.115Z" fill="#D387FF" fill-opacity="0.05"></path><path d="M1708.93 148.527V147.812L280.357 147.813V148.527L1708.93 148.527Z" fill="#D387FF" fill-opacity="0.05"></path><path d="M614.286 -156.115H613.571V1272.46H614.286V-156.115Z" fill="#D387FF" fill-opacity="0.05"></path><path d="M1708.93 177.814V177.1L280.357 177.1V177.814L1708.93 177.814Z" fill="#D387FF" fill-opacity="0.05"></path><path d="M643.572 -156.115H642.857V1272.46H643.572V-156.115Z" fill="#D387FF" fill-opacity="0.05"></path><path d="M1708.93 207.099V206.385L280.357 206.385V207.099L1708.93 207.099Z" fill="#D387FF" fill-opacity="0.05"></path><path d="M672.857 -156.115H672.143V1272.46H672.857V-156.115Z" fill="#D387FF" fill-opacity="0.05"></path><path d="M1708.93 236.384V235.67L280.357 235.67V236.384L1708.93 236.384Z" fill="#D387FF" fill-opacity="0.05"></path><path d="M702.143 -156.115H701.429V1272.46H702.143V-156.115Z" fill="#D387FF" fill-opacity="0.05"></path><path d="M1708.93 265.671V264.957L280.357 264.957V265.671L1708.93 265.671Z" fill="#D387FF" fill-opacity="0.05"></path><path d="M731.428 -156.115H730.714V1272.46H731.428V-156.115Z" fill="#D387FF" fill-opacity="0.05"></path><path d="M1708.93 294.956V294.242L280.357 294.242V294.956L1708.93 294.956Z" fill="#D387FF" fill-opacity="0.05"></path><path d="M760.714 -156.115H760V1272.46H760.714V-156.115Z" fill="#D387FF" fill-opacity="0.05"></path><path d="M1708.93 324.242V323.527L280.357 323.527V324.242L1708.93 324.242Z" fill="#D387FF" fill-opacity="0.05"></path><path d="M790 -156.115H789.286V1272.46H790V-156.115Z" fill="#D387FF" fill-opacity="0.05"></path><path d="M1708.93 353.527V352.812L280.357 352.813V353.527L1708.93 353.527Z" fill="#D387FF" fill-opacity="0.05"></path><path d="M819.286 -156.115H818.571V1272.46H819.286V-156.115Z" fill="#D387FF" fill-opacity="0.05"></path><path d="M1708.93 382.814V382.1L280.357 382.1V382.814L1708.93 382.814Z" fill="#D387FF" fill-opacity="0.05"></path><path d="M848.572 -156.115H847.857V1272.46H848.572V-156.115Z" fill="#D387FF" fill-opacity="0.05"></path><path d="M1708.93 412.099V411.385L280.357 411.385V412.099L1708.93 412.099Z" fill="#D387FF" fill-opacity="0.05"></path><path d="M877.857 -156.115H877.143V1272.46H877.857V-156.115Z" fill="#D387FF" fill-opacity="0.05"></path><path d="M1708.93 441.384V440.67L280.357 440.67V441.384L1708.93 441.384Z" fill="#D387FF" fill-opacity="0.05"></path><path d="M907.143 -156.115H906.429V1272.46H907.143V-156.115Z" fill="#D387FF" fill-opacity="0.05"></path><path d="M1708.93 470.671V469.957L280.357 469.957V470.671L1708.93 470.671Z" fill="#D387FF" fill-opacity="0.05"></path><path d="M936.428 -156.115H935.714V1272.46H936.428V-156.115Z" fill="#D387FF" fill-opacity="0.05"></path><path d="M1708.93 499.956V499.242L280.357 499.242V499.956L1708.93 499.956Z" fill="#D387FF" fill-opacity="0.05"></path><path d="M965.714 -156.115H965V1272.46H965.714V-156.115Z" fill="#D387FF" fill-opacity="0.05"></path><path d="M1708.93 529.242V528.527L280.357 528.527V529.242L1708.93 529.242Z" fill="#D387FF" fill-opacity="0.05"></path><path d="M995 -156.115H994.286V1272.46H995V-156.115Z" fill="#D387FF" fill-opacity="0.05"></path><path d="M1708.93 558.527V557.812L280.357 557.813V558.527L1708.93 558.527Z" fill="#D387FF" fill-opacity="0.05"></path><path d="M1024.29 -156.115H1023.57V1272.46H1024.29V-156.115Z" fill="#D387FF" fill-opacity="0.05"></path><path d="M1708.93 587.814V587.1L280.357 587.1V587.814L1708.93 587.814Z" fill="#D387FF" fill-opacity="0.05"></path><path d="M1053.57 -156.115H1052.86V1272.46H1053.57V-156.115Z" fill="#D387FF" fill-opacity="0.05"></path><path d="M1708.93 617.099V616.385L280.357 616.385V617.099L1708.93 617.099Z" fill="#D387FF" fill-opacity="0.05"></path><path d="M1082.86 -156.115H1082.14V1272.46H1082.86V-156.115Z" fill="#D387FF" fill-opacity="0.05"></path><path d="M1708.93 646.384V645.67L280.357 645.67V646.384L1708.93 646.384Z" fill="#D387FF" fill-opacity="0.05"></path><path d="M1112.14 -156.115H1111.43V1272.46H1112.14V-156.115Z" fill="#D387FF" fill-opacity="0.05"></path><path d="M1708.93 675.671V674.957L280.357 674.957V675.671L1708.93 675.671Z" fill="#D387FF" fill-opacity="0.05"></path><path d="M1141.43 -156.115H1140.71V1272.46H1141.43V-156.115Z" fill="#D387FF" fill-opacity="0.05"></path><path d="M1708.93 704.956V704.242L280.357 704.242V704.956L1708.93 704.956Z" fill="#D387FF" fill-opacity="0.05"></path><path d="M1170.71 -156.115H1170V1272.46H1170.71V-156.115Z" fill="#D387FF" fill-opacity="0.05"></path><path d="M1708.93 734.242V733.527L280.357 733.527V734.242L1708.93 734.242Z" fill="#D387FF" fill-opacity="0.05"></path><path d="M1200 -156.115H1199.29V1272.46H1200V-156.115Z" fill="#D387FF" fill-opacity="0.05"></path><path d="M1708.93 763.527V762.812L280.357 762.813V763.527L1708.93 763.527Z" fill="#D387FF" fill-opacity="0.05"></path><path d="M1229.29 -156.115H1228.57V1272.46H1229.29V-156.115Z" fill="#D387FF" fill-opacity="0.05"></path><path d="M1708.93 792.814V792.1L280.357 792.1V792.814L1708.93 792.814Z" fill="#D387FF" fill-opacity="0.05"></path><path d="M1258.57 -156.115H1257.86V1272.46H1258.57V-156.115Z" fill="#D387FF" fill-opacity="0.05"></path><path d="M1708.93 822.099V821.385L280.357 821.385V822.099L1708.93 822.099Z" fill="#D387FF" fill-opacity="0.05"></path><path d="M1287.86 -156.115H1287.14V1272.46H1287.86V-156.115Z" fill="#D387FF" fill-opacity="0.05"></path><path d="M1708.93 851.384V850.67L280.357 850.67V851.384L1708.93 851.384Z" fill="#D387FF" fill-opacity="0.05"></path><path d="M1317.14 -156.115H1316.43V1272.46H1317.14V-156.115Z" fill="#D387FF" fill-opacity="0.05"></path><path d="M1708.93 880.671V879.957L280.357 879.957V880.671L1708.93 880.671Z" fill="#D387FF" fill-opacity="0.05"></path><path d="M1346.43 -156.115H1345.71V1272.46H1346.43V-156.115Z" fill="#D387FF" fill-opacity="0.05"></path><path d="M1708.93 909.956V909.242L280.357 909.242V909.956L1708.93 909.956Z" fill="#D387FF" fill-opacity="0.05"></path><path d="M1375.71 -156.115H1375V1272.46H1375.71V-156.115Z" fill="#D387FF" fill-opacity="0.05"></path><path d="M1708.93 939.242V938.527L280.357 938.527V939.242L1708.93 939.242Z" fill="#D387FF" fill-opacity="0.05"></path><path d="M1405 -156.115H1404.29V1272.46H1405V-156.115Z" fill="#D387FF" fill-opacity="0.05"></path><path d="M1708.93 968.527V967.812L280.357 967.813V968.527L1708.93 968.527Z" fill="#D387FF" fill-opacity="0.05"></path><path d="M1434.29 -156.115H1433.57V1272.46H1434.29V-156.115Z" fill="#D387FF" fill-opacity="0.05"></path><path d="M1708.93 997.814V997.1L280.357 997.1V997.814L1708.93 997.814Z" fill="#D387FF" fill-opacity="0.05"></path><path d="M1463.57 -156.115H1462.86V1272.46H1463.57V-156.115Z" fill="#D387FF" fill-opacity="0.05"></path><path d="M1708.93 1027.1V1026.38H280.357V1027.1H1708.93Z" fill="#D387FF" fill-opacity="0.05"></path><path d="M1492.86 -156.115H1492.14V1272.46H1492.86V-156.115Z" fill="#D387FF" fill-opacity="0.05"></path><path d="M1708.93 1056.38V1055.67H280.357V1056.38H1708.93Z" fill="#D387FF" fill-opacity="0.05"></path><path d="M1522.14 -156.115H1521.43V1272.46H1522.14V-156.115Z" fill="#D387FF" fill-opacity="0.05"></path><path d="M1708.93 1085.67V1084.96H280.357V1085.67H1708.93Z" fill="#D387FF" fill-opacity="0.05"></path><path d="M1551.43 -156.115H1550.71V1272.46H1551.43V-156.115Z" fill="#D387FF" fill-opacity="0.05"></path><path d="M1708.93 1114.96V1114.24H280.357V1114.96H1708.93Z" fill="#D387FF" fill-opacity="0.05"></path><path d="M1580.71 -156.115H1580V1272.46H1580.71V-156.115Z" fill="#D387FF" fill-opacity="0.05"></path><path d="M1610 -156.115H1609.29V1272.46H1610V-156.115Z" fill="#D387FF" fill-opacity="0.05"></path><path d="M1639.29 -156.115H1638.57V1272.46H1639.29V-156.115Z" fill="#D387FF" fill-opacity="0.05"></path><path d="M1668.57 -156.115H1667.86V1272.46H1668.57V-156.115Z" fill="#D387FF" fill-opacity="0.05"></path><path d="M1697.86 -156.115H1697.14V1272.46H1697.86V-156.115Z" fill="#D387FF" fill-opacity="0.05"></path></g></g><rect y="-2" width="2000" height="1120" fill="url(#paint1_radial_112_9574)"></rect></g><defs><radialGradient id="paint0_radial_112_9574" cx="0" cy="0" r="1" gradientUnits="userSpaceOnUse" gradientTransform="translate(1000 560) scale(1266.79 912.222)"><stop stop-color="#230D37"></stop><stop offset="0.55" stop-color="#0D0316"></stop></radialGradient><radialGradient id="paint1_radial_112_9574" cx="0" cy="0" r="1" gradientUnits="userSpaceOnUse" gradientTransform="translate(1000 558) scale(1000 720.103)"><stop offset="0.444" stop-color="#0D0316" stop-opacity="0"></stop><stop offset="0.85" stop-color="#0D0316"></stop></radialGradient><clipPath id="clip0_112_9574"><rect width="2000" height="1118" fill="white"></rect></clipPath><clipPath id="clip1_112_9574"><rect width="2000" height="1120" fill="white" transform="translate(0 -2)"></rect></clipPath><clipPath id="clip2_112_9574"><rect width="2000" height="1428" fill="white" transform="translate(0 -156)"></rect></clipPath></defs></svg> 