<?xml version="1.0" encoding="UTF-8"?> <svg xmlns="http://www.w3.org/2000/svg" width="2000" height="997" viewBox="0 0 2000 997" fill="none"><g clip-path="url(#clip0_118_12013)"><rect width="2000" height="997" fill="#0D0316"></rect><rect width="2000" height="997" fill="url(#paint0_radial_118_12013)"></rect><g clip-path="url(#clip1_118_12013)"><g clip-path="url(#clip2_118_12013)"><path d="M292.143 63.1289H291.429V1491.7H292.143V63.1289Z" fill="#D387FF" fill-opacity="0.05"></path><path d="M1708.93 74.9155V74.2012L280.357 74.2012V74.9155L1708.93 74.9155Z" fill="#D387FF" fill-opacity="0.05"></path><path d="M321.428 63.1289H320.714V1491.7H321.428V63.1289Z" fill="#D387FF" fill-opacity="0.05"></path><path d="M1708.93 104.201V103.486L280.357 103.486V104.201L1708.93 104.201Z" fill="#D387FF" fill-opacity="0.05"></path><path d="M350.714 63.1289H350V1491.7H350.714V63.1289Z" fill="#D387FF" fill-opacity="0.05"></path><path d="M1708.93 133.486V132.771L280.357 132.771V133.486L1708.93 133.486Z" fill="#D387FF" fill-opacity="0.05"></path><path d="M380 63.1289H379.286V1491.7H380V63.1289Z" fill="#D387FF" fill-opacity="0.05"></path><path d="M1708.93 162.771V162.057L280.357 162.057V162.771L1708.93 162.771Z" fill="#D387FF" fill-opacity="0.05"></path><path d="M409.286 63.1289H408.571V1491.7H409.286V63.1289Z" fill="#D387FF" fill-opacity="0.05"></path><path d="M1708.93 192.058V191.344L280.357 191.344V192.058L1708.93 192.058Z" fill="#D387FF" fill-opacity="0.05"></path><path d="M438.572 63.1289H437.857V1491.7H438.572V63.1289Z" fill="#D387FF" fill-opacity="0.05"></path><path d="M1708.93 221.343V220.629L280.357 220.629V221.343L1708.93 221.343Z" fill="#D387FF" fill-opacity="0.05"></path><path d="M467.857 63.1289H467.143V1491.7H467.857V63.1289Z" fill="#D387FF" fill-opacity="0.05"></path><path d="M1708.93 250.628V249.914L280.357 249.914V250.628L1708.93 250.628Z" fill="#D387FF" fill-opacity="0.05"></path><path d="M497.143 63.1289H496.429V1491.7H497.143V63.1289Z" fill="#D387FF" fill-opacity="0.05"></path><path d="M1708.93 279.915V279.201L280.357 279.201V279.915L1708.93 279.915Z" fill="#D387FF" fill-opacity="0.05"></path><path d="M526.428 63.1289H525.714V1491.7H526.428V63.1289Z" fill="#D387FF" fill-opacity="0.05"></path><path d="M1708.93 309.201V308.486L280.357 308.486V309.201L1708.93 309.201Z" fill="#D387FF" fill-opacity="0.05"></path><path d="M555.714 63.1289H555V1491.7H555.714V63.1289Z" fill="#D387FF" fill-opacity="0.05"></path><path d="M1708.93 338.486V337.771L280.357 337.771V338.486L1708.93 338.486Z" fill="#D387FF" fill-opacity="0.05"></path><path d="M585 63.1289H584.286V1491.7H585V63.1289Z" fill="#D387FF" fill-opacity="0.05"></path><path d="M1708.93 367.771V367.057L280.357 367.057V367.771L1708.93 367.771Z" fill="#D387FF" fill-opacity="0.05"></path><path d="M614.286 63.1289H613.571V1491.7H614.286V63.1289Z" fill="#D387FF" fill-opacity="0.05"></path><path d="M1708.93 397.058V396.344L280.357 396.344V397.058L1708.93 397.058Z" fill="#D387FF" fill-opacity="0.05"></path><path d="M643.572 63.1289H642.857V1491.7H643.572V63.1289Z" fill="#D387FF" fill-opacity="0.05"></path><path d="M1708.93 426.343V425.629L280.357 425.629V426.343L1708.93 426.343Z" fill="#D387FF" fill-opacity="0.05"></path><path d="M672.857 63.1289H672.143V1491.7H672.857V63.1289Z" fill="#D387FF" fill-opacity="0.05"></path><path d="M1708.93 455.628V454.914L280.357 454.914V455.628L1708.93 455.628Z" fill="#D387FF" fill-opacity="0.05"></path><path d="M702.143 63.1289H701.429V1491.7H702.143V63.1289Z" fill="#D387FF" fill-opacity="0.05"></path><path d="M1708.93 484.915V484.201L280.357 484.201V484.915L1708.93 484.915Z" fill="#D387FF" fill-opacity="0.05"></path><path d="M731.428 63.1289H730.714V1491.7H731.428V63.1289Z" fill="#D387FF" fill-opacity="0.05"></path><path d="M1708.93 514.201V513.486L280.357 513.486V514.201L1708.93 514.201Z" fill="#D387FF" fill-opacity="0.05"></path><path d="M760.714 63.1289H760V1491.7H760.714V63.1289Z" fill="#D387FF" fill-opacity="0.05"></path><path d="M1708.93 543.486V542.771L280.357 542.771V543.486L1708.93 543.486Z" fill="#D387FF" fill-opacity="0.05"></path><path d="M790 63.1289H789.286V1491.7H790V63.1289Z" fill="#D387FF" fill-opacity="0.05"></path><path d="M1708.93 572.771V572.057L280.357 572.057V572.771L1708.93 572.771Z" fill="#D387FF" fill-opacity="0.05"></path><path d="M819.286 63.1289H818.571V1491.7H819.286V63.1289Z" fill="#D387FF" fill-opacity="0.05"></path><path d="M1708.93 602.058V601.344L280.357 601.344V602.058L1708.93 602.058Z" fill="#D387FF" fill-opacity="0.05"></path><path d="M848.572 63.1289H847.857V1491.7H848.572V63.1289Z" fill="#D387FF" fill-opacity="0.05"></path><path d="M1708.93 631.343V630.629L280.357 630.629V631.343L1708.93 631.343Z" fill="#D387FF" fill-opacity="0.05"></path><path d="M877.857 63.1289H877.143V1491.7H877.857V63.1289Z" fill="#D387FF" fill-opacity="0.05"></path><path d="M1708.93 660.628V659.914L280.357 659.914V660.628L1708.93 660.628Z" fill="#D387FF" fill-opacity="0.05"></path><path d="M907.143 63.1289H906.429V1491.7H907.143V63.1289Z" fill="#D387FF" fill-opacity="0.05"></path><path d="M1708.93 689.915V689.201L280.357 689.201V689.915L1708.93 689.915Z" fill="#D387FF" fill-opacity="0.05"></path><path d="M936.428 63.1289H935.714V1491.7H936.428V63.1289Z" fill="#D387FF" fill-opacity="0.05"></path><path d="M1708.93 719.201V718.486L280.357 718.486V719.201L1708.93 719.201Z" fill="#D387FF" fill-opacity="0.05"></path><path d="M965.714 63.1289H965V1491.7H965.714V63.1289Z" fill="#D387FF" fill-opacity="0.05"></path><path d="M1708.93 748.486V747.771L280.357 747.771V748.486L1708.93 748.486Z" fill="#D387FF" fill-opacity="0.05"></path><path d="M995 63.1289H994.286V1491.7H995V63.1289Z" fill="#D387FF" fill-opacity="0.05"></path><path d="M1708.93 777.771V777.057L280.357 777.057V777.771L1708.93 777.771Z" fill="#D387FF" fill-opacity="0.05"></path><path d="M1024.29 63.1289H1023.57V1491.7H1024.29V63.1289Z" fill="#D387FF" fill-opacity="0.05"></path><path d="M1708.93 807.058V806.344L280.357 806.344V807.058L1708.93 807.058Z" fill="#D387FF" fill-opacity="0.05"></path><path d="M1053.57 63.1289H1052.86V1491.7H1053.57V63.1289Z" fill="#D387FF" fill-opacity="0.05"></path><path d="M1708.93 836.343V835.629L280.357 835.629V836.343L1708.93 836.343Z" fill="#D387FF" fill-opacity="0.05"></path><path d="M1082.86 63.1289H1082.14V1491.7H1082.86V63.1289Z" fill="#D387FF" fill-opacity="0.05"></path><path d="M1708.93 865.628V864.914L280.357 864.914V865.628L1708.93 865.628Z" fill="#D387FF" fill-opacity="0.05"></path><path d="M1112.14 63.1289H1111.43V1491.7H1112.14V63.1289Z" fill="#D387FF" fill-opacity="0.05"></path><path d="M1708.93 894.915V894.201L280.357 894.201V894.915L1708.93 894.915Z" fill="#D387FF" fill-opacity="0.05"></path><path d="M1141.43 63.1289H1140.71V1491.7H1141.43V63.1289Z" fill="#D387FF" fill-opacity="0.05"></path><path d="M1708.93 924.201V923.486L280.357 923.486V924.201L1708.93 924.201Z" fill="#D387FF" fill-opacity="0.05"></path><path d="M1170.71 63.1289H1170V1491.7H1170.71V63.1289Z" fill="#D387FF" fill-opacity="0.05"></path><path d="M1708.93 953.486V952.771L280.357 952.771V953.486L1708.93 953.486Z" fill="#D387FF" fill-opacity="0.05"></path><path d="M1200 63.1289H1199.29V1491.7H1200V63.1289Z" fill="#D387FF" fill-opacity="0.05"></path><path d="M1708.93 982.771V982.057L280.357 982.057V982.771L1708.93 982.771Z" fill="#D387FF" fill-opacity="0.05"></path><path d="M1229.29 63.1289H1228.57V1491.7H1229.29V63.1289Z" fill="#D387FF" fill-opacity="0.05"></path><path d="M1258.57 63.1289H1257.86V1491.7H1258.57V63.1289Z" fill="#D387FF" fill-opacity="0.05"></path><path d="M1287.86 63.1289H1287.14V1491.7H1287.86V63.1289Z" fill="#D387FF" fill-opacity="0.05"></path><path d="M1317.14 63.1289H1316.43V1491.7H1317.14V63.1289Z" fill="#D387FF" fill-opacity="0.05"></path><path d="M1346.43 63.1289H1345.71V1491.7H1346.43V63.1289Z" fill="#D387FF" fill-opacity="0.05"></path><path d="M1375.71 63.1289H1375V1491.7H1375.71V63.1289Z" fill="#D387FF" fill-opacity="0.05"></path><path d="M1405 63.1289H1404.29V1491.7H1405V63.1289Z" fill="#D387FF" fill-opacity="0.05"></path><path d="M1434.29 63.1289H1433.57V1491.7H1434.29V63.1289Z" fill="#D387FF" fill-opacity="0.05"></path><path d="M1463.57 63.1289H1462.86V1491.7H1463.57V63.1289Z" fill="#D387FF" fill-opacity="0.05"></path><path d="M1492.86 63.1289H1492.14V1491.7H1492.86V63.1289Z" fill="#D387FF" fill-opacity="0.05"></path><path d="M1522.14 63.1289H1521.43V1491.7H1522.14V63.1289Z" fill="#D387FF" fill-opacity="0.05"></path><path d="M1551.43 63.1289H1550.71V1491.7H1551.43V63.1289Z" fill="#D387FF" fill-opacity="0.05"></path><path d="M1580.71 63.1289H1580V1491.7H1580.71V63.1289Z" fill="#D387FF" fill-opacity="0.05"></path><path d="M1610 63.1289H1609.29V1491.7H1610V63.1289Z" fill="#D387FF" fill-opacity="0.05"></path><path d="M1639.29 63.1289H1638.57V1491.7H1639.29V63.1289Z" fill="#D387FF" fill-opacity="0.05"></path><path d="M1668.57 63.1289H1667.86V1491.7H1668.57V63.1289Z" fill="#D387FF" fill-opacity="0.05"></path><path d="M1697.86 63.1289H1697.14V1491.7H1697.86V63.1289Z" fill="#D387FF" fill-opacity="0.05"></path></g></g><rect width="2000" height="997" fill="url(#paint1_radial_118_12013)"></rect></g><defs><radialGradient id="paint0_radial_118_12013" cx="0" cy="0" r="1" gradientUnits="userSpaceOnUse" gradientTransform="translate(1000 498.5) scale(1191.81 916.29)"><stop stop-color="#230D37"></stop><stop offset="0.8" stop-color="#0D0316"></stop></radialGradient><radialGradient id="paint1_radial_118_12013" cx="0" cy="0" r="1" gradientUnits="userSpaceOnUse" gradientTransform="translate(1000 498.5) scale(1000 768.82)"><stop offset="0.365" stop-color="#0D0316" stop-opacity="0"></stop><stop offset="0.65" stop-color="#0D0316"></stop></radialGradient><clipPath id="clip0_118_12013"><rect width="2000" height="997" fill="white"></rect></clipPath><clipPath id="clip1_118_12013"><rect width="2000" height="997" fill="white"></rect></clipPath><clipPath id="clip2_118_12013"><rect width="1440" height="1428.57" fill="white" transform="translate(280 63.1289)"></rect></clipPath></defs></svg> 