<?xml version="1.0" encoding="UTF-8"?> <svg xmlns="http://www.w3.org/2000/svg" width="2000" height="392" viewBox="0 0 2000 392" fill="none"><g clip-path="url(#clip0_122_13065)"><rect width="2000" height="392" fill="#0D0316"></rect><rect width="2000" height="1027" fill="url(#paint0_radial_122_13065)"></rect><g clip-path="url(#clip1_122_13065)"><g clip-path="url(#clip2_122_13065)"><path d="M292.143 -200.66H291.429V1227.91H292.143V-200.66Z" fill="#D387FF" fill-opacity="0.05"></path><path d="M321.428 -200.66H320.714V1227.91H321.428V-200.66Z" fill="#D387FF" fill-opacity="0.05"></path><path d="M350.714 -200.66H350V1227.91H350.714V-200.66Z" fill="#D387FF" fill-opacity="0.05"></path><path d="M380 -200.66H379.286V1227.91H380V-200.66Z" fill="#D387FF" fill-opacity="0.05"></path><path d="M409.286 -200.66H408.571V1227.91H409.286V-200.66Z" fill="#D387FF" fill-opacity="0.05"></path><path d="M438.572 -200.66H437.857V1227.91H438.572V-200.66Z" fill="#D387FF" fill-opacity="0.05"></path><path d="M467.857 -200.66H467.143V1227.91H467.857V-200.66Z" fill="#D387FF" fill-opacity="0.05"></path><path d="M497.143 -200.66H496.429V1227.91H497.143V-200.66Z" fill="#D387FF" fill-opacity="0.05"></path><path d="M1708.93 16.1264V15.4121L280.357 15.4121V16.1264L1708.93 16.1264Z" fill="#D387FF" fill-opacity="0.05"></path><path d="M526.428 -200.66H525.714V1227.91H526.428V-200.66Z" fill="#D387FF" fill-opacity="0.05"></path><path d="M1708.93 45.4116V44.6973L280.357 44.6973V45.4116L1708.93 45.4116Z" fill="#D387FF" fill-opacity="0.05"></path><path d="M555.714 -200.66H555V1227.91H555.714V-200.66Z" fill="#D387FF" fill-opacity="0.05"></path><path d="M1708.93 74.6967V73.9824L280.357 73.9824V74.6967L1708.93 74.6967Z" fill="#D387FF" fill-opacity="0.05"></path><path d="M585 -200.66H584.286V1227.91H585V-200.66Z" fill="#D387FF" fill-opacity="0.05"></path><path d="M1708.93 103.982V103.268L280.357 103.268V103.982L1708.93 103.982Z" fill="#D387FF" fill-opacity="0.05"></path><path d="M614.286 -200.66H613.571V1227.91H614.286V-200.66Z" fill="#D387FF" fill-opacity="0.05"></path><path d="M1708.93 133.269V132.555L280.357 132.555V133.269L1708.93 133.269Z" fill="#D387FF" fill-opacity="0.05"></path><path d="M643.572 -200.66H642.857V1227.91H643.572V-200.66Z" fill="#D387FF" fill-opacity="0.05"></path><path d="M1708.93 162.554V161.84L280.357 161.84V162.554L1708.93 162.554Z" fill="#D387FF" fill-opacity="0.05"></path><path d="M672.857 -200.66H672.143V1227.91H672.857V-200.66Z" fill="#D387FF" fill-opacity="0.05"></path><path d="M1708.93 191.839V191.125L280.357 191.125V191.839L1708.93 191.839Z" fill="#D387FF" fill-opacity="0.05"></path><path d="M702.143 -200.66H701.429V1227.91H702.143V-200.66Z" fill="#D387FF" fill-opacity="0.05"></path><path d="M1708.93 221.126V220.412L280.357 220.412V221.126L1708.93 221.126Z" fill="#D387FF" fill-opacity="0.05"></path><path d="M731.428 -200.66H730.714V1227.91H731.428V-200.66Z" fill="#D387FF" fill-opacity="0.05"></path><path d="M1708.93 250.412V249.697L280.357 249.697V250.412L1708.93 250.412Z" fill="#D387FF" fill-opacity="0.05"></path><path d="M760.714 -200.66H760V1227.91H760.714V-200.66Z" fill="#D387FF" fill-opacity="0.05"></path><path d="M1708.93 279.697V278.982L280.357 278.982V279.697L1708.93 279.697Z" fill="#D387FF" fill-opacity="0.05"></path><path d="M790 -200.66H789.286V1227.91H790V-200.66Z" fill="#D387FF" fill-opacity="0.05"></path><path d="M1708.93 308.982V308.268L280.357 308.268V308.982L1708.93 308.982Z" fill="#D387FF" fill-opacity="0.05"></path><path d="M819.286 -200.66H818.571V1227.91H819.286V-200.66Z" fill="#D387FF" fill-opacity="0.05"></path><path d="M1708.93 338.269V337.555L280.357 337.555V338.269L1708.93 338.269Z" fill="#D387FF" fill-opacity="0.05"></path><path d="M848.572 -200.66H847.857V1227.91H848.572V-200.66Z" fill="#D387FF" fill-opacity="0.05"></path><path d="M1708.93 367.554V366.84L280.357 366.84V367.554L1708.93 367.554Z" fill="#D387FF" fill-opacity="0.05"></path><path d="M877.857 -200.66H877.143V1227.91H877.857V-200.66Z" fill="#D387FF" fill-opacity="0.05"></path><path d="M907.143 -200.66H906.429V1227.91H907.143V-200.66Z" fill="#D387FF" fill-opacity="0.05"></path><path d="M936.428 -200.66H935.714V1227.91H936.428V-200.66Z" fill="#D387FF" fill-opacity="0.05"></path><path d="M965.714 -200.66H965V1227.91H965.714V-200.66Z" fill="#D387FF" fill-opacity="0.05"></path><path d="M995 -200.66H994.286V1227.91H995V-200.66Z" fill="#D387FF" fill-opacity="0.05"></path><path d="M1024.29 -200.66H1023.57V1227.91H1024.29V-200.66Z" fill="#D387FF" fill-opacity="0.05"></path><path d="M1053.57 -200.66H1052.86V1227.91H1053.57V-200.66Z" fill="#D387FF" fill-opacity="0.05"></path><path d="M1082.86 -200.66H1082.14V1227.91H1082.86V-200.66Z" fill="#D387FF" fill-opacity="0.05"></path><path d="M1112.14 -200.66H1111.43V1227.91H1112.14V-200.66Z" fill="#D387FF" fill-opacity="0.05"></path><path d="M1141.43 -200.66H1140.71V1227.91H1141.43V-200.66Z" fill="#D387FF" fill-opacity="0.05"></path><path d="M1170.71 -200.66H1170V1227.91H1170.71V-200.66Z" fill="#D387FF" fill-opacity="0.05"></path><path d="M1200 -200.66H1199.29V1227.91H1200V-200.66Z" fill="#D387FF" fill-opacity="0.05"></path><path d="M1229.29 -200.66H1228.57V1227.91H1229.29V-200.66Z" fill="#D387FF" fill-opacity="0.05"></path><path d="M1258.57 -200.66H1257.86V1227.91H1258.57V-200.66Z" fill="#D387FF" fill-opacity="0.05"></path><path d="M1287.86 -200.66H1287.14V1227.91H1287.86V-200.66Z" fill="#D387FF" fill-opacity="0.05"></path><path d="M1317.14 -200.66H1316.43V1227.91H1317.14V-200.66Z" fill="#D387FF" fill-opacity="0.05"></path><path d="M1346.43 -200.66H1345.71V1227.91H1346.43V-200.66Z" fill="#D387FF" fill-opacity="0.05"></path><path d="M1375.71 -200.66H1375V1227.91H1375.71V-200.66Z" fill="#D387FF" fill-opacity="0.05"></path><path d="M1405 -200.66H1404.29V1227.91H1405V-200.66Z" fill="#D387FF" fill-opacity="0.05"></path><path d="M1434.29 -200.66H1433.57V1227.91H1434.29V-200.66Z" fill="#D387FF" fill-opacity="0.05"></path><path d="M1463.57 -200.66H1462.86V1227.91H1463.57V-200.66Z" fill="#D387FF" fill-opacity="0.05"></path><path d="M1492.86 -200.66H1492.14V1227.91H1492.86V-200.66Z" fill="#D387FF" fill-opacity="0.05"></path><path d="M1522.14 -200.66H1521.43V1227.91H1522.14V-200.66Z" fill="#D387FF" fill-opacity="0.05"></path><path d="M1551.43 -200.66H1550.71V1227.91H1551.43V-200.66Z" fill="#D387FF" fill-opacity="0.05"></path><path d="M1580.71 -200.66H1580V1227.91H1580.71V-200.66Z" fill="#D387FF" fill-opacity="0.05"></path><path d="M1610 -200.66H1609.29V1227.91H1610V-200.66Z" fill="#D387FF" fill-opacity="0.05"></path><path d="M1639.29 -200.66H1638.57V1227.91H1639.29V-200.66Z" fill="#D387FF" fill-opacity="0.05"></path><path d="M1668.57 -200.66H1667.86V1227.91H1668.57V-200.66Z" fill="#D387FF" fill-opacity="0.05"></path><path d="M1697.86 -200.66H1697.14V1227.91H1697.86V-200.66Z" fill="#D387FF" fill-opacity="0.05"></path></g></g><rect width="2000" height="1027" fill="url(#paint1_radial_122_13065)"></rect><rect width="2000" height="1027" fill="url(#paint2_linear_122_13065)"></rect></g><defs><radialGradient id="paint0_radial_122_13065" cx="0" cy="0" r="1" gradientUnits="userSpaceOnUse" gradientTransform="translate(1000 513.5) scale(1228.23 884.406)"><stop stop-color="#230D37"></stop><stop offset="0.55" stop-color="#0D0316"></stop></radialGradient><radialGradient id="paint1_radial_122_13065" cx="0" cy="0" r="1" gradientUnits="userSpaceOnUse" gradientTransform="translate(1000 513.5) scale(1000 720.063)"><stop offset="0.485" stop-color="#0D0316" stop-opacity="0"></stop><stop offset="0.775" stop-color="#0D0316"></stop></radialGradient><linearGradient id="paint2_linear_122_13065" x1="1026.5" y1="0" x2="1026.5" y2="393.5" gradientUnits="userSpaceOnUse"><stop offset="0.521043" stop-color="#0D0316" stop-opacity="0"></stop><stop offset="1" stop-color="#0D0316"></stop></linearGradient><clipPath id="clip0_122_13065"><rect width="2000" height="392" fill="white"></rect></clipPath><clipPath id="clip1_122_13065"><rect width="1440" height="1026.91" fill="white" transform="translate(280 0.169922)"></rect></clipPath><clipPath id="clip2_122_13065"><rect width="1440" height="1428.57" fill="white" transform="translate(280 -200.66)"></rect></clipPath></defs></svg> 