<?xml version="1.0" encoding="UTF-8"?> <svg xmlns="http://www.w3.org/2000/svg" width="2000" height="132" viewBox="0 0 2000 132" fill="none"><g clip-path="url(#clip0_122_13065)"><rect width="2000" height="132" fill="#0D0316"></rect><rect width="2000" height="1027" transform="translate(0 -895)" fill="url(#paint0_radial_122_13065)"></rect><g clip-path="url(#clip1_122_13065)"><g clip-path="url(#clip2_122_13065)"><path d="M292.143 -1095.66H291.429V332.911H292.143V-1095.66Z" fill="#D387FF" fill-opacity="0.05"></path><path d="M321.428 -1095.66H320.714V332.911H321.428V-1095.66Z" fill="#D387FF" fill-opacity="0.05"></path><path d="M350.714 -1095.66H350V332.911H350.714V-1095.66Z" fill="#D387FF" fill-opacity="0.05"></path><path d="M380 -1095.66H379.286V332.911H380V-1095.66Z" fill="#D387FF" fill-opacity="0.05"></path><path d="M409.286 -1095.66H408.571V332.911H409.286V-1095.66Z" fill="#D387FF" fill-opacity="0.05"></path><path d="M438.572 -1095.66H437.857V332.911H438.572V-1095.66Z" fill="#D387FF" fill-opacity="0.05"></path><path d="M467.857 -1095.66H467.143V332.911H467.857V-1095.66Z" fill="#D387FF" fill-opacity="0.05"></path><path d="M497.143 -1095.66H496.429V332.911H497.143V-1095.66Z" fill="#D387FF" fill-opacity="0.05"></path><path d="M526.428 -1095.66H525.714V332.911H526.428V-1095.66Z" fill="#D387FF" fill-opacity="0.05"></path><path d="M555.714 -1095.66H555V332.911H555.714V-1095.66Z" fill="#D387FF" fill-opacity="0.05"></path><path d="M585 -1095.66H584.286V332.911H585V-1095.66Z" fill="#D387FF" fill-opacity="0.05"></path><path d="M614.286 -1095.66H613.571V332.911H614.286V-1095.66Z" fill="#D387FF" fill-opacity="0.05"></path><path d="M643.572 -1095.66H642.857V332.911H643.572V-1095.66Z" fill="#D387FF" fill-opacity="0.05"></path><path d="M672.857 -1095.66H672.143V332.911H672.857V-1095.66Z" fill="#D387FF" fill-opacity="0.05"></path><path d="M702.143 -1095.66H701.429V332.911H702.143V-1095.66Z" fill="#D387FF" fill-opacity="0.05"></path><path d="M731.428 -1095.66H730.714V332.911H731.428V-1095.66Z" fill="#D387FF" fill-opacity="0.05"></path><path d="M760.714 -1095.66H760V332.911H760.714V-1095.66Z" fill="#D387FF" fill-opacity="0.05"></path><path d="M790 -1095.66H789.286V332.911H790V-1095.66Z" fill="#D387FF" fill-opacity="0.05"></path><path d="M819.286 -1095.66H818.571V332.911H819.286V-1095.66Z" fill="#D387FF" fill-opacity="0.05"></path><path d="M848.572 -1095.66H847.857V332.911H848.572V-1095.66Z" fill="#D387FF" fill-opacity="0.05"></path><path d="M877.857 -1095.66H877.143V332.911H877.857V-1095.66Z" fill="#D387FF" fill-opacity="0.05"></path><path d="M907.143 -1095.66H906.429V332.911H907.143V-1095.66Z" fill="#D387FF" fill-opacity="0.05"></path><path d="M936.428 -1095.66H935.714V332.911H936.428V-1095.66Z" fill="#D387FF" fill-opacity="0.05"></path><path d="M965.714 -1095.66H965V332.911H965.714V-1095.66Z" fill="#D387FF" fill-opacity="0.05"></path><path d="M995 -1095.66H994.286V332.911H995V-1095.66Z" fill="#D387FF" fill-opacity="0.05"></path><path d="M1024.29 -1095.66H1023.57V332.911H1024.29V-1095.66Z" fill="#D387FF" fill-opacity="0.05"></path><path d="M1053.57 -1095.66H1052.86V332.911H1053.57V-1095.66Z" fill="#D387FF" fill-opacity="0.05"></path><path d="M1082.86 -1095.66H1082.14V332.911H1082.86V-1095.66Z" fill="#D387FF" fill-opacity="0.05"></path><path d="M1112.14 -1095.66H1111.43V332.911H1112.14V-1095.66Z" fill="#D387FF" fill-opacity="0.05"></path><path d="M1141.43 -1095.66H1140.71V332.911H1141.43V-1095.66Z" fill="#D387FF" fill-opacity="0.05"></path><path d="M1170.71 -1095.66H1170V332.911H1170.71V-1095.66Z" fill="#D387FF" fill-opacity="0.05"></path><path d="M1200 -1095.66H1199.29V332.911H1200V-1095.66Z" fill="#D387FF" fill-opacity="0.05"></path><path d="M1229.29 -1095.66H1228.57V332.911H1229.29V-1095.66Z" fill="#D387FF" fill-opacity="0.05"></path><path d="M1258.57 -1095.66H1257.86V332.911H1258.57V-1095.66Z" fill="#D387FF" fill-opacity="0.05"></path><path d="M1287.86 -1095.66H1287.14V332.911H1287.86V-1095.66Z" fill="#D387FF" fill-opacity="0.05"></path><path d="M1317.14 -1095.66H1316.43V332.911H1317.14V-1095.66Z" fill="#D387FF" fill-opacity="0.05"></path><path d="M1346.43 -1095.66H1345.71V332.911H1346.43V-1095.66Z" fill="#D387FF" fill-opacity="0.05"></path><path d="M1375.71 -1095.66H1375V332.911H1375.71V-1095.66Z" fill="#D387FF" fill-opacity="0.05"></path><path d="M1405 -1095.66H1404.29V332.911H1405V-1095.66Z" fill="#D387FF" fill-opacity="0.05"></path><path d="M1708.93 28.9819V28.2676L280.357 28.2676V28.9819L1708.93 28.9819Z" fill="#D387FF" fill-opacity="0.05"></path><path d="M1434.29 -1095.66H1433.57V332.911H1434.29V-1095.66Z" fill="#D387FF" fill-opacity="0.05"></path><path d="M1708.93 58.269V57.5547L280.357 57.5547V58.269L1708.93 58.269Z" fill="#D387FF" fill-opacity="0.05"></path><path d="M1463.57 -1095.66H1462.86V332.911H1463.57V-1095.66Z" fill="#D387FF" fill-opacity="0.05"></path><path d="M1708.93 87.5541V86.8398L280.357 86.8398V87.5541L1708.93 87.5541Z" fill="#D387FF" fill-opacity="0.05"></path><path d="M1492.86 -1095.66H1492.14V332.911H1492.86V-1095.66Z" fill="#D387FF" fill-opacity="0.05"></path><path d="M1708.93 116.839V116.125L280.357 116.125V116.839L1708.93 116.839Z" fill="#D387FF" fill-opacity="0.05"></path><path d="M1522.14 -1095.66H1521.43V332.911H1522.14V-1095.66Z" fill="#D387FF" fill-opacity="0.05"></path><path d="M1551.43 -1095.66H1550.71V332.911H1551.43V-1095.66Z" fill="#D387FF" fill-opacity="0.05"></path><path d="M1580.71 -1095.66H1580V332.911H1580.71V-1095.66Z" fill="#D387FF" fill-opacity="0.05"></path><path d="M1610 -1095.66H1609.29V332.911H1610V-1095.66Z" fill="#D387FF" fill-opacity="0.05"></path><path d="M1639.29 -1095.66H1638.57V332.911H1639.29V-1095.66Z" fill="#D387FF" fill-opacity="0.05"></path><path d="M1668.57 -1095.66H1667.86V332.911H1668.57V-1095.66Z" fill="#D387FF" fill-opacity="0.05"></path><path d="M1697.86 -1095.66H1697.14V332.911H1697.86V-1095.66Z" fill="#D387FF" fill-opacity="0.05"></path></g></g><rect y="-895" width="2000" height="1027" fill="url(#paint1_radial_122_13065)"></rect><rect x="2000" y="132" width="2000" height="133" transform="rotate(-180 2000 132)" fill="url(#paint2_linear_122_13065)"></rect></g><defs><radialGradient id="paint0_radial_122_13065" cx="0" cy="0" r="1" gradientUnits="userSpaceOnUse" gradientTransform="translate(1000 513.5) scale(1228.23 884.406)"><stop stop-color="#230D37"></stop><stop offset="0.55" stop-color="#0D0316"></stop></radialGradient><radialGradient id="paint1_radial_122_13065" cx="0" cy="0" r="1" gradientUnits="userSpaceOnUse" gradientTransform="translate(1000 -381.5) scale(1000 720.063)"><stop offset="0.485" stop-color="#0D0316" stop-opacity="0"></stop><stop offset="0.775" stop-color="#0D0316"></stop></radialGradient><linearGradient id="paint2_linear_122_13065" x1="3026.5" y1="217.5" x2="3026.5" y2="265" gradientUnits="userSpaceOnUse"><stop stop-color="#0D0316" stop-opacity="0"></stop><stop offset="1" stop-color="#0D0316"></stop></linearGradient><clipPath id="clip0_122_13065"><rect width="2000" height="132" fill="white"></rect></clipPath><clipPath id="clip1_122_13065"><rect width="1440" height="1026.91" fill="white" transform="translate(280 -894.83)"></rect></clipPath><clipPath id="clip2_122_13065"><rect width="1440" height="1428.57" fill="white" transform="translate(280 -1095.66)"></rect></clipPath></defs></svg> 