<?xml version="1.0" encoding="UTF-8"?> <svg xmlns="http://www.w3.org/2000/svg" width="2000" height="1559" viewBox="0 0 2000 1559" fill="none"><g clip-path="url(#clip0_119_12500)"><rect width="2000" height="1559" fill="#0D0316"></rect><rect width="2000" height="1374" fill="url(#paint0_radial_119_12500)"></rect><g clip-path="url(#clip1_119_12500)"><g clip-path="url(#clip2_119_12500)"><path d="M292.143 -27.2969H291.429V1401.27H292.143V-27.2969Z" fill="#D387FF" fill-opacity="0.05"></path><path d="M321.428 -27.2969H320.714V1401.27H321.428V-27.2969Z" fill="#D387FF" fill-opacity="0.05"></path><path d="M1708.93 13.7748V13.0605L280.357 13.0605V13.7748L1708.93 13.7748Z" fill="#D387FF" fill-opacity="0.05"></path><path d="M350.714 -27.2969H350V1401.27H350.714V-27.2969Z" fill="#D387FF" fill-opacity="0.05"></path><path d="M1708.93 43.06V42.3457L280.357 42.3457V43.06L1708.93 43.06Z" fill="#D387FF" fill-opacity="0.05"></path><path d="M380 -27.2969H379.286V1401.27H380V-27.2969Z" fill="#D387FF" fill-opacity="0.05"></path><path d="M1708.93 72.3451V71.6309L280.357 71.6309V72.3451L1708.93 72.3451Z" fill="#D387FF" fill-opacity="0.05"></path><path d="M409.286 -27.2969H408.571V1401.27H409.286V-27.2969Z" fill="#D387FF" fill-opacity="0.05"></path><path d="M1708.93 101.632V100.918L280.357 100.918V101.632L1708.93 101.632Z" fill="#D387FF" fill-opacity="0.05"></path><path d="M438.572 -27.2969H437.857V1401.27H438.572V-27.2969Z" fill="#D387FF" fill-opacity="0.05"></path><path d="M1708.93 130.917V130.203L280.357 130.203V130.917L1708.93 130.917Z" fill="#D387FF" fill-opacity="0.05"></path><path d="M467.857 -27.2969H467.143V1401.27H467.857V-27.2969Z" fill="#D387FF" fill-opacity="0.05"></path><path d="M1708.93 160.203V159.488L280.357 159.488V160.203L1708.93 160.203Z" fill="#D387FF" fill-opacity="0.05"></path><path d="M497.143 -27.2969H496.429V1401.27H497.143V-27.2969Z" fill="#D387FF" fill-opacity="0.05"></path><path d="M1708.93 189.49V188.775L280.357 188.775V189.49L1708.93 189.49Z" fill="#D387FF" fill-opacity="0.05"></path><path d="M526.428 -27.2969H525.714V1401.27H526.428V-27.2969Z" fill="#D387FF" fill-opacity="0.05"></path><path d="M1708.93 218.775V218.061L280.357 218.061V218.775L1708.93 218.775Z" fill="#D387FF" fill-opacity="0.05"></path><path d="M555.714 -27.2969H555V1401.27H555.714V-27.2969Z" fill="#D387FF" fill-opacity="0.05"></path><path d="M1708.93 248.06V247.346L280.357 247.346V248.06L1708.93 248.06Z" fill="#D387FF" fill-opacity="0.05"></path><path d="M585 -27.2969H584.286V1401.27H585V-27.2969Z" fill="#D387FF" fill-opacity="0.05"></path><path d="M1708.93 277.345V276.631L280.357 276.631V277.345L1708.93 277.345Z" fill="#D387FF" fill-opacity="0.05"></path><path d="M614.286 -27.2969H613.571V1401.27H614.286V-27.2969Z" fill="#D387FF" fill-opacity="0.05"></path><path d="M1708.93 306.632V305.918L280.357 305.918V306.632L1708.93 306.632Z" fill="#D387FF" fill-opacity="0.05"></path><path d="M643.572 -27.2969H642.857V1401.27H643.572V-27.2969Z" fill="#D387FF" fill-opacity="0.05"></path><path d="M1708.93 335.917V335.203L280.357 335.203V335.917L1708.93 335.917Z" fill="#D387FF" fill-opacity="0.05"></path><path d="M672.857 -27.2969H672.143V1401.27H672.857V-27.2969Z" fill="#D387FF" fill-opacity="0.05"></path><path d="M1708.93 365.203V364.488L280.357 364.488V365.203L1708.93 365.203Z" fill="#D387FF" fill-opacity="0.05"></path><path d="M702.143 -27.2969H701.429V1401.27H702.143V-27.2969Z" fill="#D387FF" fill-opacity="0.05"></path><path d="M1708.93 394.49V393.775L280.357 393.775V394.49L1708.93 394.49Z" fill="#D387FF" fill-opacity="0.05"></path><path d="M731.428 -27.2969H730.714V1401.27H731.428V-27.2969Z" fill="#D387FF" fill-opacity="0.05"></path><path d="M1708.93 423.775V423.061L280.357 423.061V423.775L1708.93 423.775Z" fill="#D387FF" fill-opacity="0.05"></path><path d="M760.714 -27.2969H760V1401.27H760.714V-27.2969Z" fill="#D387FF" fill-opacity="0.05"></path><path d="M1708.93 453.06V452.346L280.357 452.346V453.06L1708.93 453.06Z" fill="#D387FF" fill-opacity="0.05"></path><path d="M790 -27.2969H789.286V1401.27H790V-27.2969Z" fill="#D387FF" fill-opacity="0.05"></path><path d="M1708.93 482.345V481.631L280.357 481.631V482.345L1708.93 482.345Z" fill="#D387FF" fill-opacity="0.05"></path><path d="M819.286 -27.2969H818.571V1401.27H819.286V-27.2969Z" fill="#D387FF" fill-opacity="0.05"></path><path d="M1708.93 511.632V510.918L280.357 510.918V511.632L1708.93 511.632Z" fill="#D387FF" fill-opacity="0.05"></path><path d="M848.572 -27.2969H847.857V1401.27H848.572V-27.2969Z" fill="#D387FF" fill-opacity="0.05"></path><path d="M1708.93 540.917V540.203L280.357 540.203V540.917L1708.93 540.917Z" fill="#D387FF" fill-opacity="0.05"></path><path d="M877.857 -27.2969H877.143V1401.27H877.857V-27.2969Z" fill="#D387FF" fill-opacity="0.05"></path><path d="M1708.93 570.203V569.488L280.357 569.488V570.203L1708.93 570.203Z" fill="#D387FF" fill-opacity="0.05"></path><path d="M907.143 -27.2969H906.429V1401.27H907.143V-27.2969Z" fill="#D387FF" fill-opacity="0.05"></path><path d="M1708.93 599.49V598.775L280.357 598.775V599.49L1708.93 599.49Z" fill="#D387FF" fill-opacity="0.05"></path><path d="M936.428 -27.2969H935.714V1401.27H936.428V-27.2969Z" fill="#D387FF" fill-opacity="0.05"></path><path d="M1708.93 628.775V628.061L280.357 628.061V628.775L1708.93 628.775Z" fill="#D387FF" fill-opacity="0.05"></path><path d="M965.714 -27.2969H965V1401.27H965.714V-27.2969Z" fill="#D387FF" fill-opacity="0.05"></path><path d="M1708.93 658.06V657.346L280.357 657.346V658.06L1708.93 658.06Z" fill="#D387FF" fill-opacity="0.05"></path><path d="M995 -27.2969H994.286V1401.27H995V-27.2969Z" fill="#D387FF" fill-opacity="0.05"></path><path d="M1708.93 687.345V686.631L280.357 686.631V687.345L1708.93 687.345Z" fill="#D387FF" fill-opacity="0.05"></path><path d="M1024.29 -27.2969H1023.57V1401.27H1024.29V-27.2969Z" fill="#D387FF" fill-opacity="0.05"></path><path d="M1708.93 716.632V715.918L280.357 715.918V716.632L1708.93 716.632Z" fill="#D387FF" fill-opacity="0.05"></path><path d="M1053.57 -27.2969H1052.86V1401.27H1053.57V-27.2969Z" fill="#D387FF" fill-opacity="0.05"></path><path d="M1708.93 745.917V745.203L280.357 745.203V745.917L1708.93 745.917Z" fill="#D387FF" fill-opacity="0.05"></path><path d="M1082.86 -27.2969H1082.14V1401.27H1082.86V-27.2969Z" fill="#D387FF" fill-opacity="0.05"></path><path d="M1708.93 775.203V774.488L280.357 774.488V775.203L1708.93 775.203Z" fill="#D387FF" fill-opacity="0.05"></path><path d="M1112.14 -27.2969H1111.43V1401.27H1112.14V-27.2969Z" fill="#D387FF" fill-opacity="0.05"></path><path d="M1708.93 804.49V803.775L280.357 803.775V804.49L1708.93 804.49Z" fill="#D387FF" fill-opacity="0.05"></path><path d="M1141.43 -27.2969H1140.71V1401.27H1141.43V-27.2969Z" fill="#D387FF" fill-opacity="0.05"></path><path d="M1708.93 833.775V833.061L280.357 833.061V833.775L1708.93 833.775Z" fill="#D387FF" fill-opacity="0.05"></path><path d="M1170.71 -27.2969H1170V1401.27H1170.71V-27.2969Z" fill="#D387FF" fill-opacity="0.05"></path><path d="M1708.93 863.06V862.346L280.357 862.346V863.06L1708.93 863.06Z" fill="#D387FF" fill-opacity="0.05"></path><path d="M1200 -27.2969H1199.29V1401.27H1200V-27.2969Z" fill="#D387FF" fill-opacity="0.05"></path><path d="M1708.93 892.345V891.631L280.357 891.631V892.345L1708.93 892.345Z" fill="#D387FF" fill-opacity="0.05"></path><path d="M1229.29 -27.2969H1228.57V1401.27H1229.29V-27.2969Z" fill="#D387FF" fill-opacity="0.05"></path><path d="M1708.93 921.632V920.918L280.357 920.918V921.632L1708.93 921.632Z" fill="#D387FF" fill-opacity="0.05"></path><path d="M1258.57 -27.2969H1257.86V1401.27H1258.57V-27.2969Z" fill="#D387FF" fill-opacity="0.05"></path><path d="M1708.93 950.917V950.203L280.357 950.203V950.917L1708.93 950.917Z" fill="#D387FF" fill-opacity="0.05"></path><path d="M1287.86 -27.2969H1287.14V1401.27H1287.86V-27.2969Z" fill="#D387FF" fill-opacity="0.05"></path><path d="M1708.93 980.203V979.488L280.357 979.488V980.203L1708.93 980.203Z" fill="#D387FF" fill-opacity="0.05"></path><path d="M1317.14 -27.2969H1316.43V1401.27H1317.14V-27.2969Z" fill="#D387FF" fill-opacity="0.05"></path><path d="M1708.93 1009.49V1008.78L280.357 1008.78V1009.49L1708.93 1009.49Z" fill="#D387FF" fill-opacity="0.05"></path><path d="M1346.43 -27.2969H1345.71V1401.27H1346.43V-27.2969Z" fill="#D387FF" fill-opacity="0.05"></path><path d="M1708.93 1038.77V1038.06H280.357V1038.77H1708.93Z" fill="#D387FF" fill-opacity="0.05"></path><path d="M1375.71 -27.2969H1375V1401.27H1375.71V-27.2969Z" fill="#D387FF" fill-opacity="0.05"></path><path d="M1708.93 1068.06V1067.35H280.357V1068.06H1708.93Z" fill="#D387FF" fill-opacity="0.05"></path><path d="M1405 -27.2969H1404.29V1401.27H1405V-27.2969Z" fill="#D387FF" fill-opacity="0.05"></path><path d="M1708.93 1097.35V1096.63H280.357V1097.35H1708.93Z" fill="#D387FF" fill-opacity="0.05"></path><path d="M1434.29 -27.2969H1433.57V1401.27H1434.29V-27.2969Z" fill="#D387FF" fill-opacity="0.05"></path><path d="M1708.93 1126.63V1125.92H280.357V1126.63H1708.93Z" fill="#D387FF" fill-opacity="0.05"></path><path d="M1463.57 -27.2969H1462.86V1401.27H1463.57V-27.2969Z" fill="#D387FF" fill-opacity="0.05"></path><path d="M1708.93 1155.92V1155.2H280.357V1155.92H1708.93Z" fill="#D387FF" fill-opacity="0.05"></path><path d="M1492.86 -27.2969H1492.14V1401.27H1492.86V-27.2969Z" fill="#D387FF" fill-opacity="0.05"></path><path d="M1708.93 1185.2V1184.49H280.357V1185.2H1708.93Z" fill="#D387FF" fill-opacity="0.05"></path><path d="M1522.14 -27.2969H1521.43V1401.27H1522.14V-27.2969Z" fill="#D387FF" fill-opacity="0.05"></path><path d="M1708.93 1214.49V1213.78H280.357V1214.49H1708.93Z" fill="#D387FF" fill-opacity="0.05"></path><path d="M1551.43 -27.2969H1550.71V1401.27H1551.43V-27.2969Z" fill="#D387FF" fill-opacity="0.05"></path><path d="M1708.93 1243.77V1243.06H280.357V1243.77H1708.93Z" fill="#D387FF" fill-opacity="0.05"></path><path d="M1580.71 -27.2969H1580V1401.27H1580.71V-27.2969Z" fill="#D387FF" fill-opacity="0.05"></path><path d="M1708.93 1273.06V1272.35H280.357V1273.06H1708.93Z" fill="#D387FF" fill-opacity="0.05"></path><path d="M1610 -27.2969H1609.29V1401.27H1610V-27.2969Z" fill="#D387FF" fill-opacity="0.05"></path><path d="M1708.93 1302.35V1301.63H280.357V1302.35H1708.93Z" fill="#D387FF" fill-opacity="0.05"></path><path d="M1639.29 -27.2969H1638.57V1401.27H1639.29V-27.2969Z" fill="#D387FF" fill-opacity="0.05"></path><path d="M1708.93 1331.63V1330.92H280.357V1331.63H1708.93Z" fill="#D387FF" fill-opacity="0.05"></path><path d="M1668.57 -27.2969H1667.86V1401.27H1668.57V-27.2969Z" fill="#D387FF" fill-opacity="0.05"></path><path d="M1708.93 1360.92V1360.2H280.357V1360.92H1708.93Z" fill="#D387FF" fill-opacity="0.05"></path><path d="M1697.86 -27.2969H1697.14V1401.27H1697.86V-27.2969Z" fill="#D387FF" fill-opacity="0.05"></path></g></g><rect width="2000" height="1374" fill="url(#paint1_radial_119_12500)"></rect><rect x="280" y="1374.17" width="1440" height="184" fill="url(#paint2_linear_119_12500)"></rect></g><defs><radialGradient id="paint0_radial_119_12500" cx="0" cy="0" r="1" gradientUnits="userSpaceOnUse" gradientTransform="translate(1000 687) scale(1382.36 995.036)"><stop stop-color="#230D37"></stop><stop offset="0.55" stop-color="#0D0316"></stop></radialGradient><radialGradient id="paint1_radial_119_12500" cx="0" cy="0" r="1" gradientUnits="userSpaceOnUse" gradientTransform="translate(1000 687) scale(1000 719.811)"><stop offset="0.505" stop-color="#0D0316" stop-opacity="0"></stop><stop offset="0.725" stop-color="#0D0316"></stop></radialGradient><linearGradient id="paint2_linear_119_12500" x1="1000" y1="1374.17" x2="1000" y2="1558.17" gradientUnits="userSpaceOnUse"><stop offset="0.12" stop-color="#0D0316"></stop><stop offset="1" stop-color="#0D0316" stop-opacity="0"></stop></linearGradient><clipPath id="clip0_119_12500"><rect width="2000" height="1559" fill="white"></rect></clipPath><clipPath id="clip1_119_12500"><rect width="2000" height="1374" fill="white"></rect></clipPath><clipPath id="clip2_119_12500"><rect width="2000" height="1428" fill="white" transform="translate(0 -27)"></rect></clipPath></defs></svg> 